# This file uses centimeters as units for non-parametric coordinates.

mtllib head.mtl
g default
v -0.874107 1.572720 5.266751
v 0.874107 1.572720 5.266751
v -2.588676 9.150226 5.266751
v 2.588676 9.150226 5.266751
v -2.588676 9.150226 0.231607
v 2.588676 9.150226 0.231607
v -2.588676 4.792048 -0.552743
v 2.588676 4.792048 -0.552743
v -0.680294 3.525243 -0.031587
v 0.680294 3.525243 -0.031587
v 0.344040 2.945379 1.402116
v -0.229712 2.627848 1.324240
v -0.497510 0.863608 -0.227372
v 0.497510 0.863608 -0.227372
v 0.251602 0.479269 0.579108
v -0.167992 0.437040 0.667718
vt 0.375000 0.000000
vt 0.625000 0.000000
vt 0.375000 0.250000
vt 0.625000 0.250000
vt 0.375000 0.500000
vt 0.625000 0.500000
vt 0.375000 0.750000
vt 0.625000 0.750000
vt 0.375000 1.000000
vt 0.625000 1.000000
vt 0.875000 0.000000
vt 0.875000 0.250000
vt 0.125000 0.000000
vt 0.125000 0.250000
vt 0.375000 0.750000
vt 0.625000 0.750000
vt 0.625000 1.000000
vt 0.375000 1.000000
vt 0.375000 0.750000
vt 0.625000 0.750000
vt 0.625000 1.000000
vt 0.375000 1.000000
vn 0.000000 0.000000 1.000000
vn 0.000000 0.000000 1.000000
vn 0.000000 0.000000 1.000000
vn 0.000000 0.000000 1.000000
vn 0.000000 1.000000 0.000000
vn 0.000000 1.000000 0.000000
vn 0.000000 1.000000 0.000000
vn 0.000000 1.000000 0.000000
vn 0.000000 0.177126 -0.984188
vn 0.000000 0.177126 -0.984188
vn 0.000000 0.177126 -0.984188
vn 0.000000 0.177126 -0.984188
vn 0.000000 -0.902730 -0.430208
vn 0.000000 -0.902730 -0.430208
vn 0.000000 -0.902730 -0.430208
vn 0.000000 -0.902730 -0.430208
vn 0.982648 -0.148464 0.111184
vn 0.982648 -0.148464 0.111184
vn 0.982648 -0.148464 0.111184
vn 0.982648 -0.148464 0.111184
vn -0.982648 -0.148464 0.111184
vn -0.982648 -0.148464 0.111184
vn -0.982648 -0.148464 0.111184
vn -0.982648 -0.148464 0.111184
vn 0.000000 -0.380456 -0.924799
vn 0.000000 -0.380456 -0.924799
vn 0.000000 -0.380456 -0.924799
vn 0.000000 -0.380456 -0.924799
vn 0.413090 -0.849507 -0.328168
vn 0.413090 -0.849507 -0.328168
vn 0.413090 -0.849507 -0.328168
vn 0.413090 -0.849507 -0.328168
vn 0.139190 -0.946176 -0.292194
vn 0.139190 -0.946176 -0.292194
vn 0.139190 -0.946176 -0.292194
vn 0.139190 -0.946176 -0.292194
vn -0.491894 -0.810956 -0.316844
vn -0.491894 -0.810956 -0.316844
vn -0.491894 -0.810956 -0.316844
vn -0.491894 -0.810956 -0.316844
vn 0.000000 0.073360 -0.997306
vn 0.000000 0.073360 -0.997306
vn 0.000000 0.073360 -0.997306
vn 0.000000 0.073360 -0.997306
vn 0.972669 -0.094358 0.212157
vn 0.972669 -0.094358 0.212157
vn 0.972669 -0.094358 0.212157
vn 0.972669 -0.094358 0.212157
vn 0.119360 -0.301342 0.946016
vn 0.119360 -0.301342 0.946016
vn 0.119360 -0.301342 0.946016
vn 0.119360 -0.301342 0.946016
vn -0.956649 -0.096471 0.274803
vn -0.956649 -0.096471 0.274803
vn -0.956649 -0.096471 0.274803
vn -0.956649 -0.096471 0.274803
s off
g pCube19
usemtl initialShadingGroup
f 1/1/1 2/2/2 4/4/3 3/3/4
f 3/3/5 4/4/6 6/6/7 5/5/8
f 5/5/9 6/6/10 8/8/11 7/7/12
f 13/19/13 14/20/14 15/21/15 16/22/16
f 2/2/17 8/11/18 6/12/19 4/4/20
f 7/13/21 1/1/22 3/3/23 5/14/24
f 7/7/25 8/8/26 10/16/27 9/15/28
f 8/8/29 2/10/30 11/17/31 10/16/32
f 2/10/33 1/9/34 12/18/35 11/17/36
f 1/9/37 7/7/38 9/15/39 12/18/40
f 9/15/41 10/16/42 14/20/43 13/19/44
f 10/16/45 11/17/46 15/21/47 14/20/48
f 11/17/49 12/18/50 16/22/51 15/21/52
f 12/18/53 9/15/54 13/19/55 16/22/56
